<?xml version="1.0" encoding="UTF-8"?><svg id="Layer_2" xmlns="http://www.w3.org/2000/svg" width="225" height="225" xmlns:xlink="http://www.w3.org/1999/xlink" viewBox="0 0 225 225"><defs><style>.cls-1{fill:none;}.cls-2{fill:#a5b3d5;}.cls-3{fill:#788fc6;}.cls-4{fill:#7c92c7;}.cls-5{fill:#99a9d1;}.cls-6{fill:#d4d8e4;}.cls-7{fill:#c8cee0;}.cls-8{fill:#92a4cf;}.cls-9{fill:#f8f4f1;}.cls-10{fill:#e2e3e9;}.cls-11{fill:#b0bcd9;}.cls-12{fill:#a9b6d6;}.cls-13{fill:#d9dce6;}.cls-14{fill:#90a2ce;}.cls-15{fill:#f2f0ef;}.cls-16{fill:#bac3dc;}.cls-17{fill:#c9cfe1;}.cls-18{fill:#879bcb;}.cls-19{fill:#adb9d8;}.cls-20{fill:#e1e2e9;}.cls-21{fill:#7088c3;}.cls-22{fill:#f1efee;}.cls-23{fill:#d6d9e5;}.cls-24{fill:#9dacd2;}.cls-25{fill:#9eadd3;}.cls-26{fill:#748cc4;}.cls-27{fill:#c6cce0;}.cls-28{fill:#ccd1e2;}.cls-29{fill:#e4e4ea;}.cls-30{fill:#8ea0cd;}.cls-31{fill:#b8c1db;}.cls-32{fill:#acb8d7;}.cls-33{fill:#bec6dd;}.cls-34{fill:#d5d8e5;}.cls-35{fill:#e5e5ea;}.cls-36{fill:#7d93c7;}.cls-37{fill:#eeeced;}.cls-38{fill:#a8b5d6;}.cls-39{fill:#9faed3;}.cls-40{fill:#768dc5;}.cls-41{fill:#abb8d7;}.cls-42{fill:#a0afd3;}.cls-43{fill:#778ec5;}.cls-44{fill:#bfc7dd;}.cls-45{fill:#6e87c2;}.cls-46{fill:#e9e8ec;}.cls-47{fill:#c1c8de;}.cls-48{fill:#d0d4e3;}.cls-49{fill:#e0e1e9;}.cls-50{fill:#e8e8eb;}.cls-51{fill:#dfe0e8;}.cls-52{fill:#e6e6eb;}.cls-53{fill:#c7cde0;}.cls-54{fill:#8c9fcc;}.cls-55{fill:#b1bcd9;}.cls-56{fill:#8095c8;}.cls-57{fill:#cad0e1;}.cls-58{fill:#758cc5;}.cls-59{fill:#f0eeee;}.cls-60{fill:#7189c3;}.cls-61{fill:#96a7d0;}.cls-62{fill:#e3e4ea;}.cls-63{fill:#7b91c7;}.cls-64{fill:#91a3ce;}.cls-65{fill:#a1b0d4;}.cls-66{fill:#fef9f3;}.cls-67{fill:#b3beda;}.cls-68{fill:#afbbd8;}.cls-69{fill:#dcdee7;}.cls-70{fill:#b9c2db;}.cls-71{fill:#d3d7e4;}.cls-72{fill:#9aaad1;}.cls-73{fill:#8a9dcc;}.cls-74{fill:#f7f4f0;}.cls-75{fill:#7a90c6;}.cls-76{fill:#9cacd2;}.cls-77{fill:#a6b4d5;}.cls-78{fill:#8196c9;}.cls-79{fill:#fbf7f2;}.cls-80{fill:#b7c0db;}.cls-81{fill:#cdd2e2;}.cls-82{fill:#869aca;}.cls-83{fill:#6f88c3;}.cls-84{fill:#f9f5f1;}.cls-85{fill:#a4b2d5;}.cls-86{fill:#8da0cd;}.cls-87{fill:#e7e7eb;}.cls-88{fill:#a2b0d4;}.cls-89{fill:#efedee;}.cls-90{fill:#eae9ec;}.cls-91{fill:#c3cadf;}.cls-92{fill:#d2d6e4;}.cls-93{fill:#f4f1ef;}.cls-94{fill:#bcc4dc;}.cls-95{fill:#dadce6;}.cls-96{fill:#a7b4d6;}.cls-97{fill:#d1d5e3;}.cls-98{fill:#f6f3f0;}.cls-99{fill:#bbc4dc;}.cls-100{fill:#c2c9de;}.cls-101{fill:#8398c9;}.cls-102{fill:#d8dbe6;}.cls-103{fill:#bdc5dd;}.cls-104{fill:#fcf8f2;}.cls-105{fill:#8fa1cd;}.cls-106{fill:#f3f0ef;}.cls-107{fill:#9babd2;}.cls-108{fill:#8b9ecc;}.cls-109{fill:red;}.cls-110{fill:#dee0e8;}.cls-111{fill:#b2bdd9;}.cls-112{fill:#7e94c8;}.cls-113{fill:#ecebed;}.cls-114{fill:#98a8d1;}.cls-115{fill:#7990c6;}.cls-116{fill:#b4bfda;}.cls-117{fill:#cbd0e1;}.cls-118{fill:#c0c8de;}.cls-119{fill:#7f94c8;}.cls-120{fill:#6d86c2;}.cls-121{fill:#b5c0da;}.cls-122{fill:#aebad8;}.cls-123{fill:#edeced;}.cls-124{fill:#ebeaec;}.cls-125{fill:#8498ca;}.cls-126{fill:#95a6d0;}.cls-127{fill:#728ac4;}.cls-128{fill:#fffaf3;}.cls-129{fill:#d7dae5;}.cls-130{fill:#cfd4e3;}.cls-131{fill:#c5ccdf;}.cls-132{fill:#94a5cf;}.cls-133{fill:#8599ca;}.cls-134{fill:#93a4cf;}.cls-135{fill:#899ccb;}.cls-136{fill:#faf6f1;}.cls-137{fill:#8297c9;}.cls-138{fill:#a5b5dc;}.cls-139{fill:#dddfe8;}.cls-140{fill:#97a8d0;}.cls-141{fill:#889ccb;}.cls-142{clip-path:url(#clippath);}.cls-143{fill:#aab7d7;}.cls-144{fill:#a3b1d4;}.cls-145{fill:#f5f2f0;}.cls-146{fill:#dbdde7;}.cls-147{fill:#ced3e2;}.cls-148{fill:#fdf8f2;}.cls-149{fill:#c4cbdf;}.cls-150{fill:#738bc4;}</style><clipPath id="clippath"><ellipse class="cls-1" cx="112.59" cy="112.89" rx="85.29" ry="81.99"/></clipPath></defs><g class="cls-142"><rect class="cls-128" x="27.3" y="30.9" width="170.58" height="163.99"/><circle class="cls-128" cx="112.59" cy="112.89" r="83.65"/><circle class="cls-66" cx="112.59" cy="112.89" r="83.08"/><circle class="cls-148" cx="112.59" cy="112.89" r="82.51"/><circle class="cls-104" cx="112.59" cy="112.89" r="81.93"/><circle class="cls-79" cx="112.59" cy="112.89" r="81.36"/><circle class="cls-136" cx="112.59" cy="112.89" r="80.79"/><circle class="cls-84" cx="112.59" cy="112.89" r="80.21"/><circle class="cls-9" cx="112.59" cy="112.89" r="79.64"/><circle class="cls-74" cx="112.59" cy="112.89" r="79.07"/><circle class="cls-98" cx="112.59" cy="112.89" r="78.5"/><circle class="cls-145" cx="112.59" cy="112.89" r="77.92"/><circle class="cls-93" cx="112.59" cy="112.89" r="77.35"/><circle class="cls-106" cx="112.59" cy="112.89" r="76.78"/><circle class="cls-15" cx="112.59" cy="112.89" r="76.2"/><circle class="cls-22" cx="112.59" cy="112.89" r="75.63"/><circle class="cls-59" cx="112.59" cy="112.89" r="75.06"/><circle class="cls-89" cx="112.59" cy="112.89" r="74.48"/><circle class="cls-37" cx="112.59" cy="112.89" r="73.91"/><circle class="cls-123" cx="112.59" cy="112.89" r="73.34"/><circle class="cls-113" cx="112.59" cy="112.89" r="72.77"/><circle class="cls-124" cx="112.59" cy="112.89" r="72.19"/><circle class="cls-90" cx="112.59" cy="112.89" r="71.62"/><circle class="cls-46" cx="112.59" cy="112.89" r="71.05"/><circle class="cls-50" cx="112.59" cy="112.89" r="70.47"/><circle class="cls-87" cx="112.59" cy="112.89" r="69.9"/><circle class="cls-52" cx="112.59" cy="112.89" r="69.33"/><circle class="cls-35" cx="112.59" cy="112.89" r="68.76"/><circle class="cls-29" cx="112.59" cy="112.89" r="68.18"/><circle class="cls-62" cx="112.59" cy="112.89" r="67.61"/><circle class="cls-10" cx="112.59" cy="112.89" r="67.04"/><circle class="cls-20" cx="112.59" cy="112.89" r="66.46"/><circle class="cls-49" cx="112.59" cy="112.89" r="65.89"/><circle class="cls-51" cx="112.59" cy="112.89" r="65.32"/><circle class="cls-110" cx="112.59" cy="112.89" r="64.74"/><circle class="cls-139" cx="112.59" cy="112.89" r="64.17"/><circle class="cls-69" cx="112.59" cy="112.89" r="63.6"/><circle class="cls-146" cx="112.59" cy="112.89" r="63.03"/><circle class="cls-95" cx="112.59" cy="112.89" r="62.45"/><circle class="cls-13" cx="112.59" cy="112.89" r="61.88"/><circle class="cls-102" cx="112.59" cy="112.89" r="61.31"/><circle class="cls-129" cx="112.59" cy="112.89" r="60.73"/><circle class="cls-23" cx="112.59" cy="112.89" r="60.16"/><circle class="cls-34" cx="112.59" cy="112.89" r="59.59"/><circle class="cls-6" cx="112.59" cy="112.89" r="59.01"/><circle class="cls-71" cx="112.59" cy="112.89" r="58.44"/><circle class="cls-92" cx="112.59" cy="112.89" r="57.87"/><circle class="cls-97" cx="112.59" cy="112.89" r="57.3"/><circle class="cls-48" cx="112.59" cy="112.89" r="56.72"/><circle class="cls-130" cx="112.59" cy="112.89" r="56.15"/><circle class="cls-147" cx="112.59" cy="112.89" r="55.58"/><circle class="cls-81" cx="112.59" cy="112.89" r="55"/><circle class="cls-28" cx="112.59" cy="112.89" r="54.43"/><circle class="cls-117" cx="112.59" cy="112.89" r="53.86"/><circle class="cls-57" cx="112.59" cy="112.89" r="53.29"/><circle class="cls-17" cx="112.59" cy="112.89" r="52.71"/><circle class="cls-7" cx="112.59" cy="112.89" r="52.14"/><circle class="cls-53" cx="112.59" cy="112.89" r="51.57"/><circle class="cls-27" cx="112.59" cy="112.89" r="50.99"/><circle class="cls-131" cx="112.59" cy="112.89" r="50.42"/><circle class="cls-149" cx="112.59" cy="112.89" r="49.85"/><circle class="cls-91" cx="112.59" cy="112.89" r="49.27"/><circle class="cls-100" cx="112.59" cy="112.89" r="48.7"/><circle class="cls-47" cx="112.59" cy="112.89" r="48.13"/><circle class="cls-118" cx="112.59" cy="112.89" r="47.56"/><circle class="cls-44" cx="112.59" cy="112.89" r="46.98"/><circle class="cls-33" cx="112.59" cy="112.89" r="46.41"/><circle class="cls-103" cx="112.59" cy="112.89" r="45.84"/><circle class="cls-94" cx="112.59" cy="112.89" r="45.26"/><circle class="cls-99" cx="112.59" cy="112.89" r="44.69"/><circle class="cls-16" cx="112.59" cy="112.89" r="44.12"/><circle class="cls-70" cx="112.59" cy="112.89" r="43.54"/><circle class="cls-31" cx="112.59" cy="112.89" r="42.97"/><circle class="cls-80" cx="112.59" cy="112.89" r="42.4"/><circle class="cls-121" cx="112.59" cy="112.89" r="41.83"/><circle class="cls-116" cx="112.59" cy="112.89" r="41.25"/><circle class="cls-67" cx="112.59" cy="112.89" r="40.68"/><circle class="cls-111" cx="112.59" cy="112.89" r="40.11"/><circle class="cls-55" cx="112.59" cy="112.89" r="39.53"/><circle class="cls-11" cx="112.59" cy="112.89" r="38.96"/><circle class="cls-68" cx="112.59" cy="112.89" r="38.39"/><circle class="cls-122" cx="112.59" cy="112.89" r="37.82"/><circle class="cls-19" cx="112.59" cy="112.89" r="37.24"/><circle class="cls-32" cx="112.59" cy="112.89" r="36.67"/><circle class="cls-41" cx="112.59" cy="112.89" r="36.1"/><circle class="cls-143" cx="112.59" cy="112.89" r="35.52"/><circle class="cls-12" cx="112.59" cy="112.89" r="34.95"/><circle class="cls-38" cx="112.59" cy="112.89" r="34.38"/><circle class="cls-96" cx="112.59" cy="112.89" r="33.8"/><circle class="cls-77" cx="112.59" cy="112.89" r="33.23"/><circle class="cls-2" cx="112.59" cy="112.89" r="32.66"/><circle class="cls-85" cx="112.59" cy="112.89" r="32.09"/><circle class="cls-144" cx="112.59" cy="112.89" r="31.51"/><circle class="cls-88" cx="112.59" cy="112.89" r="30.94"/><circle class="cls-65" cx="112.59" cy="112.89" r="30.37"/><circle class="cls-42" cx="112.59" cy="112.89" r="29.79"/><circle class="cls-39" cx="112.59" cy="112.89" r="29.22"/><circle class="cls-25" cx="112.59" cy="112.89" r="28.65"/><circle class="cls-24" cx="112.59" cy="112.89" r="28.07"/><circle class="cls-76" cx="112.59" cy="112.89" r="27.5"/><circle class="cls-107" cx="112.59" cy="112.89" r="26.93"/><circle class="cls-72" cx="112.59" cy="112.89" r="26.36"/><circle class="cls-5" cx="112.59" cy="112.89" r="25.78"/><circle class="cls-114" cx="112.59" cy="112.89" r="25.21"/><circle class="cls-140" cx="112.59" cy="112.89" r="24.64"/><circle class="cls-61" cx="112.59" cy="112.89" r="24.06"/><circle class="cls-126" cx="112.59" cy="112.89" r="23.49"/><circle class="cls-132" cx="112.59" cy="112.89" r="22.92"/><circle class="cls-134" cx="112.59" cy="112.89" r="22.35"/><circle class="cls-8" cx="112.59" cy="112.89" r="21.77"/><circle class="cls-64" cx="112.59" cy="112.89" r="21.2"/><circle class="cls-14" cx="112.59" cy="112.89" r="20.63"/><circle class="cls-105" cx="112.59" cy="112.89" r="20.05"/><circle class="cls-30" cx="112.59" cy="112.89" r="19.48"/><circle class="cls-86" cx="112.59" cy="112.89" r="18.91"/><circle class="cls-54" cx="112.59" cy="112.89" r="18.33"/><circle class="cls-108" cx="112.59" cy="112.89" r="17.76"/><circle class="cls-73" cx="112.59" cy="112.89" r="17.19"/><circle class="cls-135" cx="112.59" cy="112.89" r="16.62"/><circle class="cls-141" cx="112.59" cy="112.89" r="16.04"/><circle class="cls-18" cx="112.59" cy="112.89" r="15.47"/><circle class="cls-82" cx="112.59" cy="112.89" r="14.9"/><circle class="cls-133" cx="112.59" cy="112.89" r="14.32"/><circle class="cls-125" cx="112.59" cy="112.89" r="13.75"/><circle class="cls-101" cx="112.59" cy="112.89" r="13.18"/><circle class="cls-137" cx="112.59" cy="112.89" r="12.61"/><circle class="cls-78" cx="112.59" cy="112.89" r="12.03"/><circle class="cls-56" cx="112.59" cy="112.89" r="11.46"/><circle class="cls-119" cx="112.59" cy="112.89" r="10.89"/><circle class="cls-112" cx="112.59" cy="112.89" r="10.31"/><circle class="cls-36" cx="112.59" cy="112.89" r="9.74"/><circle class="cls-4" cx="112.59" cy="112.89" r="9.17"/><circle class="cls-63" cx="112.59" cy="112.89" r="8.59"/><circle class="cls-75" cx="112.59" cy="112.89" r="8.02"/><circle class="cls-115" cx="112.59" cy="112.89" r="7.45"/><circle class="cls-3" cx="112.59" cy="112.89" r="6.88"/><circle class="cls-43" cx="112.59" cy="112.89" r="6.3"/><circle class="cls-40" cx="112.59" cy="112.89" r="5.73"/><circle class="cls-58" cx="112.59" cy="112.89" r="5.16"/><circle class="cls-26" cx="112.59" cy="112.89" r="4.58"/><circle class="cls-150" cx="112.59" cy="112.89" r="4.01"/><circle class="cls-127" cx="112.59" cy="112.89" r="3.44"/><circle class="cls-60" cx="112.59" cy="112.89" r="2.86"/><circle class="cls-21" cx="112.59" cy="112.89" r="2.29"/><circle class="cls-83" cx="112.59" cy="112.89" r="1.72"/><circle class="cls-45" cx="112.59" cy="112.89" r="1.15"/><circle class="cls-120" cx="112.59" cy="112.89" r=".57"/></g><path class="cls-109" d="M65.14,102.5c-.42,0-.8-.16-1.1-.45-.6-.6-.6-1.59,0-2.19l1.83-1.83c.6-.6,1.59-.6,2.19,0,.6.6.6,1.59,0,2.19l-1.83,1.83c-.29.29-.68.45-1.1.45ZM66.98,97.82c-.33,0-.67.13-.92.38l-1.83,1.83c-.51.51-.51,1.33,0,1.84.24.24.57.38.92.38s.67-.13.92-.38l1.83-1.83c.51-.51.51-1.33,0-1.84-.25-.25-.59-.38-.92-.38Z"/><path d="M33.19,80.03L111.34.41l2.61,2.44s-3.42,3.31-1.24,4.35,3.73-1.66,3.73-1.66l2.49,2.28L40.55,88.03l-2.96-2.96s2.96-1.66,1.85-3.33-2.96-.55-3.7.92l-2.55-2.64Z"/><path d="M56,102.82L134.14,23.2l2.61,2.44s-3.42,3.31-1.24,4.35,3.73-1.66,3.73-1.66l2.49,2.28L63.35,110.82l-2.96-2.96s2.96-1.66,1.85-3.33-2.96-.55-3.7.92l-2.55-2.64Z"/><polygon points="53.54 74.74 68.29 90.29 72.74 85.76 57.79 70.39 53.54 74.74"/><polygon points="69.76 57.89 84.52 73.45 88.96 68.92 74.01 53.55 69.76 57.89"/><polygon points="86.39 40.99 101.14 56.54 105.59 52.01 90.64 36.64 86.39 40.99"/><polygon points="102.99 24.18 117.75 39.73 122.19 35.2 107.24 19.83 102.99 24.18"/><rect class="cls-128" x="40.78" y="75.03" width="5.44" height="2.85" rx="1.43" ry="1.43" transform="translate(-41.32 53.15) rotate(-45)"/><rect class="cls-128" x="47.2" y="68.97" width="5.44" height="2.85" rx="1.43" ry="1.43" transform="translate(-35.15 55.92) rotate(-45)"/><rect class="cls-128" x="53.16" y="63.24" width="5.44" height="2.85" rx="1.43" ry="1.43" transform="translate(-29.36 58.46) rotate(-45)"/><rect class="cls-128" x="59.02" y="57.15" width="5.44" height="2.85" rx="1.43" ry="1.43" transform="translate(-23.34 60.81) rotate(-45)"/><rect class="cls-128" x="71" y="45.17" width="5.44" height="2.85" rx="1.43" ry="1.43" transform="translate(-11.35 65.78) rotate(-45)"/><rect class="cls-128" x="65.2" y="50.97" width="5.44" height="2.85" rx="1.43" ry="1.43" transform="translate(-17.15 63.38) rotate(-45)"/><rect class="cls-128" x="82.71" y="33.1" width="5.44" height="2.85" rx="1.43" ry="1.43" transform="translate(.61 70.52) rotate(-45)"/><rect class="cls-128" x="88.7" y="27.11" width="5.44" height="2.85" rx="1.43" ry="1.43" transform="translate(6.6 73) rotate(-45)"/><rect class="cls-128" x="100.27" y="15.07" width="5.44" height="2.85" rx="1.43" ry="1.43" transform="translate(18.5 77.66) rotate(-45)"/><rect class="cls-128" x="94.76" y="21.05" width="5.44" height="2.85" rx="1.43" ry="1.43" transform="translate(12.65 75.51) rotate(-45)"/><rect class="cls-128" x="106.37" y="8.97" width="5.44" height="2.85" rx="1.43" ry="1.43" transform="translate(24.6 80.18) rotate(-45)"/><rect class="cls-128" x="76.64" y="39.17" width="5.44" height="2.85" rx="1.43" ry="1.43" transform="translate(-5.46 68.01) rotate(-45)"/><rect class="cls-128" x="70.02" y="91.5" width="5.44" height="2.85" rx="1.43" ry="1.43" transform="translate(-44.41 78.65) rotate(-45)"/><rect class="cls-128" x="63.34" y="98.61" width="5.44" height="2.85" rx="1.43" ry="1.43" transform="translate(-51.39 76.01) rotate(-45)"/><rect class="cls-128" x="75.72" y="85.8" width="5.44" height="2.85" rx="1.43" ry="1.43" transform="translate(-38.7 81.01) rotate(-45)"/><rect class="cls-128" x="80.88" y="80.05" width="5.44" height="2.85" rx="1.43" ry="1.43" transform="translate(-33.12 82.98) rotate(-45)"/><rect class="cls-128" x="93.27" y="67.66" width="5.44" height="2.85" rx="1.43" ry="1.43" transform="translate(-20.73 88.11) rotate(-45)"/><rect class="cls-128" x="87.07" y="73.86" width="5.44" height="2.85" rx="1.43" ry="1.43" transform="translate(-26.93 85.54) rotate(-45)"/><rect class="cls-128" x="105.03" y="55.42" width="5.44" height="2.85" rx="1.43" ry="1.43" transform="translate(-8.64 92.84) rotate(-45)"/><rect class="cls-128" x="111.26" y="49.67" width="5.44" height="2.85" rx="1.43" ry="1.43" transform="translate(-2.75 95.56) rotate(-45)"/><rect class="cls-128" x="122.83" y="37.62" width="5.44" height="2.85" rx="1.43" ry="1.43" transform="translate(9.16 100.22) rotate(-45)"/><rect class="cls-128" x="117.31" y="43.61" width="5.44" height="2.85" rx="1.43" ry="1.43" transform="translate(3.31 98.07) rotate(-45)"/><rect class="cls-128" x="128.93" y="31.52" width="5.44" height="2.85" rx="1.43" ry="1.43" transform="translate(15.26 102.74) rotate(-45)"/><rect class="cls-128" x="99.2" y="61.73" width="5.44" height="2.85" rx="1.43" ry="1.43" transform="translate(-14.8 90.56) rotate(-45)"/><path class="cls-109" d="M114.12,216.28c-.4,0-.79-.15-1.1-.45s-.45-.68-.45-1.1.16-.8.45-1.1l1.83-1.83c.6-.6,1.59-.6,2.19,0,.6.6.6,1.59,0,2.19l-1.83,1.83c-.3.3-.7.45-1.1.45ZM115.96,211.6c-.33,0-.67.13-.92.38l-1.83,1.83c-.24.24-.38.57-.38.92s.13.68.38.92c.51.51,1.33.51,1.84,0l1.83-1.83c.51-.51.51-1.33,0-1.84-.25-.25-.59-.38-.92-.38Z"/><path d="M82.17,193.8l78.14-79.62,2.61,2.44s-3.42,3.31-1.24,4.35,3.73-1.66,3.73-1.66l2.49,2.28-78.36,80.21-2.96-2.96s2.96-1.66,1.85-3.33-2.96-.55-3.7.92l-2.55-2.64Z"/><path d="M104.98,216.59l78.14-79.62,2.61,2.44s-3.42,3.31-1.24,4.35,3.73-1.66,3.73-1.66l2.49,2.28-78.36,80.21-2.96-2.96s2.96-1.66,1.85-3.33-2.96-.55-3.7.92l-2.55-2.64Z"/><polygon points="102.52 188.51 117.27 204.06 121.72 199.53 106.77 184.16 102.52 188.51"/><polygon points="118.74 171.67 133.5 187.22 137.94 182.69 122.99 167.32 118.74 171.67"/><polygon points="135.37 154.76 150.12 170.31 154.57 165.79 139.62 150.42 135.37 154.76"/><polygon points="151.97 137.95 166.73 153.51 171.17 148.98 156.22 133.61 151.97 137.95"/><rect class="cls-128" x="89.76" y="188.8" width="5.44" height="2.85" rx="1.43" ry="1.43" transform="translate(-107.42 121.11) rotate(-45)"/><rect class="cls-128" x="96.19" y="182.74" width="5.44" height="2.85" rx="1.43" ry="1.43" transform="translate(-101.25 123.88) rotate(-45)"/><rect class="cls-128" x="102.14" y="177.02" width="5.44" height="2.85" rx="1.43" ry="1.43" transform="translate(-95.46 126.41) rotate(-45)"/><rect class="cls-128" x="108" y="170.93" width="5.44" height="2.85" rx="1.43" ry="1.43" transform="translate(-89.44 128.77) rotate(-45)"/><rect class="cls-128" x="119.98" y="158.94" width="5.44" height="2.85" rx="1.43" ry="1.43" transform="translate(-77.46 133.74) rotate(-45)"/><rect class="cls-128" x="114.19" y="164.74" width="5.44" height="2.85" rx="1.43" ry="1.43" transform="translate(-83.25 131.33) rotate(-45)"/><rect class="cls-128" x="131.69" y="146.87" width="5.44" height="2.85" rx="1.43" ry="1.43" transform="translate(-65.49 138.48) rotate(-45)"/><rect class="cls-128" x="137.68" y="140.88" width="5.44" height="2.85" rx="1.43" ry="1.43" transform="translate(-59.51 140.96) rotate(-45)"/><rect class="cls-128" x="149.25" y="128.84" width="5.44" height="2.85" rx="1.43" ry="1.43" transform="translate(-47.6 145.62) rotate(-45)"/><rect class="cls-128" x="143.74" y="134.83" width="5.44" height="2.85" rx="1.43" ry="1.43" transform="translate(-53.45 143.47) rotate(-45)"/><rect class="cls-128" x="155.35" y="122.74" width="5.44" height="2.85" rx="1.43" ry="1.43" transform="translate(-41.5 148.14) rotate(-45)"/><rect class="cls-128" x="125.62" y="152.94" width="5.44" height="2.85" rx="1.43" ry="1.43" transform="translate(-71.57 135.97) rotate(-45)"/><rect class="cls-128" x="119" y="205.27" width="5.44" height="2.85" rx="1.43" ry="1.43" transform="translate(-110.51 146.61) rotate(-45)"/><rect class="cls-128" x="112.32" y="212.39" width="5.44" height="2.85" rx="1.43" ry="1.43" transform="translate(-117.49 143.97) rotate(-45)"/><rect class="cls-128" x="124.7" y="199.57" width="5.44" height="2.85" rx="1.43" ry="1.43" transform="translate(-104.81 148.97) rotate(-45)"/><rect class="cls-128" x="129.86" y="193.82" width="5.44" height="2.85" rx="1.43" ry="1.43" transform="translate(-99.23 150.94) rotate(-45)"/><rect class="cls-128" x="142.25" y="181.43" width="5.44" height="2.85" rx="1.43" ry="1.43" transform="translate(-86.84 156.07) rotate(-45)"/><rect class="cls-128" x="136.05" y="187.63" width="5.44" height="2.85" rx="1.43" ry="1.43" transform="translate(-93.04 153.5) rotate(-45)"/><rect class="cls-128" x="154.01" y="169.19" width="5.44" height="2.85" rx="1.43" ry="1.43" transform="translate(-74.74 160.8) rotate(-45)"/><rect class="cls-128" x="160.24" y="163.44" width="5.44" height="2.85" rx="1.43" ry="1.43" transform="translate(-68.85 163.52) rotate(-45)"/><rect class="cls-128" x="171.81" y="151.4" width="5.44" height="2.85" rx="1.43" ry="1.43" transform="translate(-56.94 168.17) rotate(-45)"/><rect class="cls-128" x="166.29" y="157.38" width="5.44" height="2.85" rx="1.43" ry="1.43" transform="translate(-62.79 166.03) rotate(-45)"/><rect class="cls-128" x="177.91" y="145.3" width="5.44" height="2.85" rx="1.43" ry="1.43" transform="translate(-50.84 170.7) rotate(-45)"/><rect class="cls-128" x="148.18" y="175.5" width="5.44" height="2.85" rx="1.43" ry="1.43" transform="translate(-80.91 158.52) rotate(-45)"/><path class="cls-109" d="M125.63,67.13h-.01c-.42,0-.8-.17-1.09-.46l-1.82-1.84c-.6-.61-.59-1.59.01-2.19.61-.6,1.59-.59,2.19.01l1.82,1.84c.29.29.45.68.45,1.1,0,.42-.17.8-.46,1.09-.29.29-.68.45-1.09.45ZM123.81,62.44c-.35,0-.67.13-.91.37-.25.24-.38.57-.39.92,0,.35.13.68.37.92l1.82,1.84c.5.51,1.33.52,1.84.01.25-.24.38-.57.39-.92,0-.35-.13-.68-.37-.92l-1.82-1.84c-.24-.25-.57-.38-.92-.39h0Z"/><path d="M144.94,31.92l79.11,78.66-2.46,2.59s-3.29-3.44-4.34-1.27,1.63,3.74,1.63,3.74l-2.29,2.47-79.7-78.88,2.98-2.94s1.64,2.97,3.31,1.87.57-2.95-.9-3.7l2.66-2.54Z"/><path d="M122,54.58l79.11,78.66-2.46,2.59s-3.29-3.44-4.34-1.27,1.63,3.74,1.63,3.74l-2.29,2.47L113.96,61.88l2.98-2.94s1.64,2.97,3.31,1.87.57-2.95-.9-3.7l2.66-2.54Z"/><polygon points="150.1 52.3 134.45 66.96 138.95 71.43 154.42 56.58 150.1 52.3"/><polygon points="166.84 68.64 151.19 83.29 155.69 87.76 171.16 72.91 166.84 68.64"/><polygon points="183.64 85.37 167.99 100.02 172.49 104.5 187.95 89.65 183.64 85.37"/><polygon points="200.34 102.08 184.69 116.74 189.19 121.21 204.65 106.36 200.34 102.08"/><rect class="cls-128" x="145.73" y="40.83" width="5.44" height="2.85" rx="1.43" ry="1.43" transform="translate(74.24 -93.08) rotate(45.37)"/><rect class="cls-128" x="151.75" y="47.29" width="5.44" height="2.85" rx="1.43" ry="1.43" transform="translate(80.63 -95.44) rotate(45.37)"/><rect class="cls-128" x="157.43" y="53.28" width="5.44" height="2.85" rx="1.43" ry="1.43" transform="translate(86.59 -97.71) rotate(45.37)"/><rect class="cls-128" x="163.48" y="59.18" width="5.44" height="2.85" rx="1.43" ry="1.43" transform="translate(92.58 -100.26) rotate(45.37)"/><rect class="cls-128" x="175.39" y="71.25" width="5.44" height="2.85" rx="1.43" ry="1.43" transform="translate(104.71 -105.14) rotate(45.37)"/><rect class="cls-128" x="169.63" y="65.41" width="5.44" height="2.85" rx="1.43" ry="1.43" transform="translate(98.84 -102.78) rotate(45.37)"/><rect class="cls-128" x="187.38" y="83.03" width="5.44" height="2.85" rx="1.43" ry="1.43" transform="translate(116.67 -110.17) rotate(45.37)"/><rect class="cls-128" x="193.33" y="89.06" width="5.44" height="2.85" rx="1.43" ry="1.43" transform="translate(122.73 -112.61) rotate(45.37)"/><rect class="cls-128" x="205.3" y="100.71" width="5.44" height="2.85" rx="1.43" ry="1.43" transform="translate(134.58 -117.66) rotate(45.37)"/><rect class="cls-128" x="199.35" y="95.15" width="5.44" height="2.85" rx="1.43" ry="1.43" transform="translate(128.86 -115.08) rotate(45.37)"/><rect class="cls-128" x="211.36" y="106.85" width="5.44" height="2.85" rx="1.43" ry="1.43" transform="translate(140.75 -120.15) rotate(45.37)"/><rect class="cls-128" x="181.35" y="76.92" width="5.44" height="2.85" rx="1.43" ry="1.43" transform="translate(110.52 -107.7) rotate(45.37)"/><rect class="cls-128" x="129.07" y="69.96" width="5.44" height="2.85" rx="1.43" ry="1.43" transform="translate(90.01 -72.56) rotate(45.37)"/><rect class="cls-128" x="122" y="63.23" width="5.44" height="2.85" rx="1.43" ry="1.43" transform="translate(83.12 -69.53) rotate(45.37)"/><rect class="cls-128" x="134.73" y="75.69" width="5.44" height="2.85" rx="1.43" ry="1.43" transform="translate(95.78 -74.88) rotate(45.37)"/><rect class="cls-128" x="140.45" y="80.89" width="5.44" height="2.85" rx="1.43" ry="1.43" transform="translate(101.18 -77.4) rotate(45.37)"/><rect class="cls-128" x="152.76" y="93.36" width="5.44" height="2.85" rx="1.43" ry="1.43" transform="translate(113.72 -82.45) rotate(45.37)"/><rect class="cls-128" x="146.6" y="87.12" width="5.44" height="2.85" rx="1.43" ry="1.43" transform="translate(107.45 -79.93) rotate(45.37)"/><rect class="cls-128" x="164.92" y="105.21" width="5.44" height="2.85" rx="1.43" ry="1.43" transform="translate(125.77 -87.58) rotate(45.37)"/><rect class="cls-128" x="170.63" y="111.47" width="5.44" height="2.85" rx="1.43" ry="1.43" transform="translate(131.92 -89.79) rotate(45.37)"/><rect class="cls-128" x="182.6" y="123.12" width="5.44" height="2.85" rx="1.43" ry="1.43" transform="translate(143.77 -94.84) rotate(45.37)"/><rect class="cls-128" x="176.65" y="117.56" width="5.44" height="2.85" rx="1.43" ry="1.43" transform="translate(138.05 -92.25) rotate(45.37)"/><rect class="cls-128" x="188.66" y="129.26" width="5.44" height="2.85" rx="1.43" ry="1.43" transform="translate(149.95 -97.32) rotate(45.37)"/><rect class="cls-128" x="158.65" y="99.33" width="5.44" height="2.85" rx="1.43" ry="1.43" transform="translate(119.72 -84.87) rotate(45.37)"/><path class="cls-109" d="M12.62,117.53h-.01c-.42,0-.8-.17-1.09-.46l-1.82-1.84c-.6-.61-.59-1.59.01-2.19.61-.6,1.59-.59,2.19.01l1.82,1.84c.29.29.45.68.45,1.1,0,.42-.17.8-.46,1.09-.29.29-.68.45-1.09.45ZM10.8,112.83c-.35,0-.67.13-.91.37-.25.24-.38.57-.39.92,0,.35.13.68.37.92l1.82,1.84c.5.51,1.33.52,1.84.01.25-.24.38-.57.39-.92,0-.35-.13-.68-.37-.92l-1.82-1.84c-.24-.25-.57-.38-.92-.39h0Z"/><path d="M31.93,82.32l79.11,78.66-2.46,2.59s-3.29-3.44-4.34-1.27,1.63,3.74,1.63,3.74l-2.29,2.47L23.88,89.63l2.98-2.94s1.64,2.97,3.31,1.87.57-2.95-.9-3.7l2.66-2.54Z"/><path d="M8.99,104.97l79.11,78.66-2.46,2.59s-3.29-3.44-4.34-1.27,1.63,3.74,1.63,3.74l-2.29,2.47L.95,112.28l2.98-2.94s1.64,2.97,3.31,1.87.57-2.95-.9-3.7l2.66-2.54Z"/><polygon points="37.09 102.7 21.44 117.35 25.94 121.82 41.41 106.97 37.09 102.7"/><polygon points="53.83 119.03 38.18 133.68 42.68 138.16 58.15 123.31 53.83 119.03"/><polygon points="70.63 135.77 54.98 150.42 59.48 154.89 74.94 140.04 70.63 135.77"/><polygon points="87.33 152.48 71.68 167.13 76.18 171.6 91.65 156.75 87.33 152.48"/><rect class="cls-128" x="32.72" y="91.23" width="5.44" height="2.85" rx="1.43" ry="1.43" transform="translate(76.48 2.34) rotate(45.37)"/><rect class="cls-128" x="38.74" y="97.69" width="5.44" height="2.85" rx="1.43" ry="1.43" transform="translate(82.88 -.02) rotate(45.37)"/><rect class="cls-128" x="44.43" y="103.68" width="5.44" height="2.85" rx="1.43" ry="1.43" transform="translate(88.83 -2.28) rotate(45.37)"/><rect class="cls-128" x="50.47" y="109.58" width="5.44" height="2.85" rx="1.43" ry="1.43" transform="translate(94.83 -4.83) rotate(45.37)"/><rect class="cls-128" x="62.38" y="121.64" width="5.44" height="2.85" rx="1.43" ry="1.43" transform="translate(106.96 -9.72) rotate(45.37)"/><rect class="cls-128" x="56.62" y="115.81" width="5.44" height="2.85" rx="1.43" ry="1.43" transform="translate(101.09 -7.36) rotate(45.37)"/><rect class="cls-128" x="74.37" y="133.43" width="5.44" height="2.85" rx="1.43" ry="1.43" transform="translate(118.91 -14.75) rotate(45.37)"/><rect class="cls-128" x="80.32" y="139.45" width="5.44" height="2.85" rx="1.43" ry="1.43" transform="translate(124.97 -17.19) rotate(45.37)"/><rect class="cls-128" x="92.29" y="151.11" width="5.44" height="2.85" rx="1.43" ry="1.43" transform="translate(136.82 -22.24) rotate(45.37)"/><rect class="cls-128" x="86.34" y="145.55" width="5.44" height="2.85" rx="1.43" ry="1.43" transform="translate(131.1 -19.66) rotate(45.37)"/><rect class="cls-128" x="98.35" y="157.24" width="5.44" height="2.85" rx="1.43" ry="1.43" transform="translate(143 -24.73) rotate(45.37)"/><rect class="cls-128" x="68.34" y="127.32" width="5.44" height="2.85" rx="1.43" ry="1.43" transform="translate(112.77 -12.27) rotate(45.37)"/><rect class="cls-128" x="16.06" y="120.35" width="5.44" height="2.85" rx="1.43" ry="1.43" transform="translate(92.26 22.87) rotate(45.37)"/><rect class="cls-128" x="8.99" y="113.63" width="5.44" height="2.85" rx="1.43" ry="1.43" transform="translate(85.37 25.9) rotate(45.37)"/><rect class="cls-128" x="21.72" y="126.09" width="5.44" height="2.85" rx="1.43" ry="1.43" transform="translate(98.03 20.54) rotate(45.37)"/><rect class="cls-128" x="27.44" y="131.29" width="5.44" height="2.85" rx="1.43" ry="1.43" transform="translate(103.43 18.02) rotate(45.37)"/><rect class="cls-128" x="39.75" y="143.76" width="5.44" height="2.85" rx="1.43" ry="1.43" transform="translate(115.96 12.97) rotate(45.37)"/><rect class="cls-128" x="33.59" y="137.52" width="5.44" height="2.85" rx="1.43" ry="1.43" transform="translate(109.69 15.5) rotate(45.37)"/><rect class="cls-128" x="51.91" y="155.6" width="5.44" height="2.85" rx="1.43" ry="1.43" transform="translate(128.01 7.84) rotate(45.37)"/><rect class="cls-128" x="57.62" y="161.86" width="5.44" height="2.85" rx="1.43" ry="1.43" transform="translate(134.17 5.64) rotate(45.37)"/><rect class="cls-128" x="69.59" y="173.52" width="5.44" height="2.85" rx="1.43" ry="1.43" transform="translate(146.02 .58) rotate(45.37)"/><rect class="cls-128" x="63.64" y="167.96" width="5.44" height="2.85" rx="1.43" ry="1.43" transform="translate(140.3 3.17) rotate(45.37)"/><rect class="cls-128" x="75.65" y="179.65" width="5.44" height="2.85" rx="1.43" ry="1.43" transform="translate(152.19 -1.9) rotate(45.37)"/><rect class="cls-128" x="45.64" y="149.73" width="5.44" height="2.85" rx="1.43" ry="1.43" transform="translate(121.96 10.55) rotate(45.37)"/><path d="M112.05,141.1c-16.19,0-29.35-13.17-29.35-29.35s13.17-29.35,29.35-29.35,29.35,13.17,29.35,29.35-13.17,29.35-29.35,29.35ZM112.05,84.4c-15.08,0-27.35,12.27-27.35,27.35s12.27,27.35,27.35,27.35,27.35-12.27,27.35-27.35-12.27-27.35-27.35-27.35Z"/><ellipse cx="112.03" cy="111.74" rx="23.97" ry="24.51"/><ellipse class="cls-138" cx="104.31" cy="97.67" rx="5.45" ry="5.57"/><ellipse class="cls-138" cx="95.62" cy="111.75" rx="5.45" ry="5.57"/><ellipse class="cls-138" cx="103.86" cy="126.54" rx="5.45" ry="5.57"/><ellipse class="cls-138" cx="120.33" cy="126.54" rx="5.45" ry="5.57"/><ellipse class="cls-138" cx="128.34" cy="112.21" rx="5.45" ry="5.57"/><ellipse class="cls-138" cx="120.33" cy="97.67" rx="5.45" ry="5.57"/><ellipse class="cls-138" cx="112.37" cy="105.47" rx="1.33" ry="1.36"/><ellipse class="cls-138" cx="106.8" cy="115.1" rx="1.33" ry="1.36"/><ellipse class="cls-138" cx="106.8" cy="108.71" rx="1.33" ry="1.36"/><ellipse class="cls-138" cx="117.7" cy="108.71" rx="1.33" ry="1.36"/><ellipse class="cls-138" cx="117.7" cy="115.1" rx="1.33" ry="1.36"/><ellipse class="cls-138" cx="112.05" cy="118.11" rx="1.33" ry="1.36"/></svg>